<?xml version="1.0" encoding="iso-8859-1"?>
<!-- Uploaded to: SVG Repo, www.svgrepo.com, Generator: SVG Repo Mixer Tools -->
<!DOCTYPE svg PUBLIC "-//W3C//DTD SVG 1.1//EN" "http://www.w3.org/Graphics/SVG/1.1/DTD/svg11.dtd">
<svg fill="#000000" height="800px" width="800px" version="1.1" id="Capa_1" xmlns="http://www.w3.org/2000/svg" xmlns:xlink="http://www.w3.org/1999/xlink" 
	 viewBox="0 0 487.336 487.336" xml:space="preserve">
<g>
	<path d="M362.611,132.832H123.475c-5.001,0-9.07,4.069-9.07,9.07v75.213c0,5,4.069,9.068,9.07,9.068h239.137
		c5.001,0,9.07-4.068,9.07-9.068v-75.213C371.682,136.901,367.612,132.832,362.611,132.832z M123.475,217.684
		c-0.314,0-0.57-0.255-0.57-0.568v-75.213c0-0.314,0.256-0.57,0.57-0.57h69.986l-51.7,76.351H123.475z M363.182,217.115
		c0,0.313-0.256,0.568-0.57,0.568h-178.64l25.542-37.859c1.313-1.945,0.799-4.587-1.146-5.9c-1.945-1.312-4.588-0.799-5.9,1.146
		l-28.75,42.613h-21.689l51.699-76.351h21.553l-12.175,18.006c-1.315,1.944-0.805,4.587,1.14,5.901
		c0.73,0.493,1.558,0.729,2.377,0.729c1.363,0,2.703-0.654,3.524-1.869l15.395-22.767h127.071c0.314,0,0.57,0.256,0.57,0.57V217.115
		z"/>
	<path d="M425.44,119.1h-15.188V31.012V4.25c0-2.348-1.902-4.25-4.25-4.25c-2.348,0-4.25,1.902-4.25,4.25
		c0,3.162-9.193,10.878-43.985,17.445c-30.346,5.729-70.746,8.883-113.759,8.883c-43.014,0-83.414-3.154-113.76-8.883
		C95.455,15.128,86.262,7.412,86.262,4.25c0-2.348-1.902-4.25-4.25-4.25c-2.348,0-4.25,1.902-4.25,4.25v26.762v0.398V119.1H61.896
		c-5.597,0-10.15,4.554-10.15,10.15v31.465c0,5.597,4.554,10.15,10.15,10.15h15.865V420.65c0,12.729,25.072,29.97,49.921,41.411
		c20.5,9.439,62.874,25.274,116.325,25.274c53.451,0,95.824-15.835,116.324-25.274c24.848-11.442,49.92-28.683,49.92-41.411V170.865
		h15.188c5.597,0,10.15-4.554,10.15-10.15V129.25C435.59,123.653,431.036,119.1,425.44,119.1z M77.762,162.365H61.896
		c-0.91,0-1.65-0.74-1.65-1.65V129.25c0-0.91,0.74-1.65,1.65-1.65h15.865V162.365z M401.752,318.992
		c-0.263-0.051-0.533-0.082-0.811-0.082h-99.119c-2.348,0-4.25,1.902-4.25,4.25c0,2.348,1.902,4.25,4.25,4.25h99.119
		c0.277,0,0.548-0.031,0.811-0.082v34.061h-27.947c-2.348,0-4.25,1.902-4.25,4.25c0,2.348,1.902,4.25,4.25,4.25h27.947v50.762
		c0,4.526-13.192,19.056-44.975,33.69c-19.868,9.148-60.939,24.496-112.77,24.496c-51.831,0-92.901-15.348-112.77-24.496
		c-31.783-14.634-44.976-29.163-44.976-33.69v-18.824H252.52c2.348,0,4.25-1.902,4.25-4.25c0-2.348-1.902-4.25-4.25-4.25H86.262
		V90.625h100.32c2.348,0,4.25-1.902,4.25-4.25c0-2.348-1.902-4.25-4.25-4.25H86.262V43.223c1.919,1.231,4.167,2.42,6.749,3.572
		c8.461,3.775,20.459,7.146,35.66,10.015c30.851,5.823,71.811,9.03,115.337,9.03c43.526,0,84.486-3.207,115.336-9.03
		c15.201-2.869,27.199-6.239,35.66-10.015c2.582-1.152,4.829-2.342,6.748-3.572V318.992z M401.752,31.012
		c0,3.162-9.193,10.878-43.985,17.445c-30.346,5.729-70.746,8.883-113.759,8.883c-43.014,0-83.414-3.154-113.76-8.883
		C95.455,41.89,86.262,34.174,86.262,31.012V16.461c1.919,1.23,4.167,2.42,6.749,3.572c8.461,3.775,20.459,7.146,35.66,10.015
		c30.851,5.823,71.811,9.03,115.337,9.03c43.526,0,84.486-3.207,115.336-9.03c15.201-2.869,27.199-6.239,35.66-10.015
		c2.582-1.152,4.829-2.342,6.748-3.572V31.012z M427.09,160.715c0,0.91-0.74,1.65-1.65,1.65h-15.188V127.6h15.188
		c0.91,0,1.65,0.74,1.65,1.65V160.715z"/>
</g>
</svg>